<svg width="75" height="75" xmlns="http://www.w3.org/2000/svg" xmlns:xlink="http://www.w3.org/1999/xlink" overflow="hidden"><defs><clipPath id="clip0"><rect x="24" y="0" width="75" height="75"/></clipPath></defs><g clip-path="url(#clip0)" transform="translate(-24 0)"><path d="M59.5469 15.625C47.4375 15.625 37.6719 25.3906 37.6719 37.5 37.6719 41.3281 38.6875 44.9219 40.4062 48.0469 42.0469 46.3281 43.8438 44.6094 45.7969 42.7344 50.7188 38.125 56.5 33.4375 61.3438 30 61.6562 29.7656 61.9688 29.6094 62.3594 29.6094 63.2188 29.6094 63.9219 30.3125 63.9219 31.1719 63.9219 31.7187 63.6875 32.1094 63.2969 32.4219L63.2969 32.4219C56.3438 37.4219 47.125 45.1562 40.875 52.1875 40.875 52.1875 40.0156 53.125 39.625 53.5938L39.625 53.5938C36.1094 57.7344 33.7656 61.4844 33.7656 64.1406L38.4531 64.1406C38.4531 62.4219 41.1875 58.6719 45.3281 54.2188 49.1562 57.5 54.0781 59.4531 59.5469 59.4531 63.4531 59.4531 67.2031 58.4375 70.4062 56.5625L70.4062 56.5625C87.125 47.2656 89.2344 30.1562 89.2344 10.9375 89.2344 10.9375 71.0312 15.9375 59.5469 15.625Z" fill="#519E8A"/></g></svg>